<svg id="Layer_1" enable-background="new 0 0 512 512" height="512" viewBox="0 0 512 512" width="512" xmlns="http://www.w3.org/2000/svg"><g><g><path d="m256 227c-8.284 0-15-6.716-15-15v-76c0-8.284 6.716-15 15-15s15 6.716 15 15v76c0 8.284-6.716 15-15 15z" fill="#007a9f"/></g><path d="m256 121c-.016 0-.032.002-.048.002v105.995c.016 0 .032.002.048.002 8.284 0 15-6.716 15-15v-76c0-8.283-6.716-14.999-15-14.999z" fill="#00607f"/><g><path d="m119.014 233.911c-4.831 0-9.574-2.33-12.469-6.643l-53.261-79.358c-4.616-6.878-2.783-16.197 4.096-20.814 6.878-4.616 16.196-2.783 20.814 4.096l53.261 79.358c4.616 6.878 2.783 16.197-4.096 20.814-2.566 1.722-5.471 2.547-8.345 2.547z" fill="#007a9f"/></g><g><path d="m392.986 233.911c-2.875 0-5.779-.824-8.345-2.546-6.879-4.617-8.712-13.936-4.096-20.814l53.261-79.358c4.618-6.879 13.937-8.712 20.814-4.096 6.879 4.617 8.712 13.936 4.096 20.814l-53.261 79.358c-2.894 4.312-7.638 6.642-12.469 6.642z" fill="#00607f"/></g><g><path d="m122 151h-107c-8.284 0-15-6.716-15-15v-8c0-37.771 30.729-68.5 68.5-68.5s68.5 30.729 68.5 68.5v8c0 8.284-6.715 15-15 15z" fill="#fdbf00"/></g><g><path d="m100.798 512h-47.597c-18.307 0-33.201-14.894-33.201-33.202v-50.364c0-18.307 14.894-33.201 33.201-33.201h47.597c18.307 0 33.201 14.894 33.201 33.201v50.364c.001 18.308-14.894 33.202-33.201 33.202z" fill="#00607f"/></g><g><path d="m458.798 512h-47.597c-18.307 0-33.201-14.894-33.201-33.202v-50.364c0-18.307 14.894-33.201 33.201-33.201h47.597c18.308 0 33.202 14.894 33.202 33.201v50.364c0 18.308-14.895 33.202-33.202 33.202z" fill="#002c3c"/></g><path clip-rule="evenodd" d="m165.67 216h180.544c23.117 0 42.931 12.133 53.44 32.722l37.404 73.278h-362.203l37.367-73.261c10.506-20.6 30.324-32.739 53.448-32.739z" fill="#f9f9f9" fill-rule="evenodd"/><path clip-rule="evenodd" d="m255.952 322h181.106l-37.404-73.278c-10.509-20.589-30.323-32.722-53.44-32.722h-90.262z" fill="#e2dff4" fill-rule="evenodd"/><path d="m437.058 337h-362.204c-5.22 0-10.065-2.714-12.791-7.165-2.727-4.452-2.943-10-.571-14.65l37.367-73.261c13.07-25.626 38.046-40.924 66.811-40.924h180.543c28.755 0 53.728 15.291 66.801 40.902l37.403 73.278c2.374 4.65 2.159 10.2-.567 14.652-2.726 4.453-7.571 7.168-12.792 7.168zm-337.714-30h313.217l-26.267-51.459c-7.96-15.596-22.569-24.541-40.08-24.541h-180.544c-17.517 0-32.128 8.95-40.087 24.554z" fill="#e63950"/><path d="m450.418 315.181-37.403-73.278c-13.074-25.612-38.046-40.903-66.801-40.903h-90.262v30h90.262c17.511 0 32.12 8.945 40.08 24.541l26.267 51.459h-156.609v30h181.106c5.221 0 10.066-2.715 12.792-7.167 2.727-4.453 2.942-10.002.568-14.652z" fill="#ae2538"/><g><path d="m309.5 151h-107c-8.284 0-15-6.716-15-15v-8c0-37.771 30.729-68.5 68.5-68.5s68.5 30.729 68.5 68.5v8c0 8.284-6.716 15-15 15z" fill="#7c84e8"/></g><path d="m471.167 334h4.083c8.284 0 15-6.716 15-15s-6.716-15-15-15h-438.5c-8.284 0-15 6.716-15 15s6.716 15 15 15h3.996c-12.956 15.059-20.814 34.624-20.814 56v47c0 8.284 6.716 15 15 15h442.048c8.284 0 15-6.716 15-15v-47c0-21.377-7.858-40.941-20.813-56z" fill="#ff5b5b"/><path d="m256 59.5c-.016 0-.031.001-.047.001v91.499h53.547c8.284 0 15-6.716 15-15v-8c0-37.771-30.729-68.5-68.5-68.5z" fill="#424ede"/><path d="m471.167 334h4.083c8.284 0 15-6.716 15-15s-6.716-15-15-15h-219.298v148h221.028c8.284 0 15-6.716 15-15v-47c0-21.377-7.858-40.941-20.813-56z" fill="#e63950"/><g><path d="m129.279 393h-34.277c-8.284 0-15-6.716-15-15s6.716-15 15-15h34.277c8.284 0 15 6.716 15 15s-6.716 15-15 15z" fill="#ffd321"/></g><g><path d="m317 393h-122.087c-8.284 0-15-6.716-15-15s6.716-15 15-15h122.087c8.284 0 15 6.716 15 15s-6.716 15-15 15z" fill="#00607f"/></g><g><path d="m417.139 393h-30.779c-8.284 0-15-6.716-15-15s6.716-15 15-15h30.779c8.284 0 15 6.716 15 15s-6.716 15-15 15z" fill="#ff9d21"/></g><g><path d="m497 151h-107c-8.284 0-15-6.716-15-15v-8c0-37.771 30.729-68.5 68.5-68.5 37.771 0 68.5 30.729 68.5 68.5v8c0 8.284-6.716 15-15 15z" fill="#00cb75"/></g><ellipse cx="68.501" cy="46.5" fill="#ffe4c1" rx="46.5" ry="46.5" transform="matrix(.973 -.23 .23 .973 -8.851 16.982)"/><ellipse cx="256" cy="46.5" fill="#ea9b8c" rx="46.5" ry="46.5" transform="matrix(.973 -.23 .23 .973 -3.835 60.061)"/><circle cx="443.5" cy="46.5" fill="#d68954" r="46.5"/><path d="m256 0c-.016 0-.032.001-.048.001v92.998c.016 0 .032.001.048.001 25.64 0 46.5-20.86 46.5-46.5s-20.859-46.5-46.5-46.5z" fill="#d68778"/><path d="m317 363h-61.048v30h61.048c8.284 0 15-6.716 15-15s-6.716-15-15-15z" fill="#002c3c"/></g></svg>